<svg width="71" height="22" viewBox="0 0 71 22" fill="none" xmlns="http://www.w3.org/2000/svg">
<rect x="1" y="1" width="23" height="20" rx="5" fill="black" stroke="#3E9137" stroke-width="2"/>
<path d="M9.964 13.404H6.628L6.076 15H4.312L7.324 6.612H9.28L12.292 15H10.516L9.964 13.404ZM9.508 12.06L8.296 8.556L7.084 12.06H9.508ZM17.9572 13.668H20.7172V15H16.2772V6.624H17.9572V13.668Z" fill="white"/>
<path d="M37.96 6.624V15H36.28V9.552L34.036 15H32.764L30.508 9.552V15H28.828V6.624H30.736L33.4 12.852L36.064 6.624H37.96ZM39.189 11.652C39.189 10.98 39.321 10.384 39.585 9.864C39.857 9.344 40.221 8.944 40.677 8.664C41.141 8.384 41.657 8.244 42.225 8.244C42.721 8.244 43.153 8.344 43.521 8.544C43.897 8.744 44.197 8.996 44.421 9.3V8.352H46.113V15H44.421V14.028C44.205 14.34 43.905 14.6 43.521 14.808C43.145 15.008 42.709 15.108 42.213 15.108C41.653 15.108 41.141 14.964 40.677 14.676C40.221 14.388 39.857 13.984 39.585 13.464C39.321 12.936 39.189 12.332 39.189 11.652ZM44.421 11.676C44.421 11.268 44.341 10.92 44.181 10.632C44.021 10.336 43.805 10.112 43.533 9.96C43.261 9.8 42.969 9.72 42.657 9.72C42.345 9.72 42.057 9.796 41.793 9.948C41.529 10.1 41.313 10.324 41.145 10.62C40.985 10.908 40.905 11.252 40.905 11.652C40.905 12.052 40.985 12.404 41.145 12.708C41.313 13.004 41.529 13.232 41.793 13.392C42.065 13.552 42.353 13.632 42.657 13.632C42.969 13.632 43.261 13.556 43.533 13.404C43.805 13.244 44.021 13.02 44.181 12.732C44.341 12.436 44.421 12.084 44.421 11.676ZM49.4338 9.384C49.6498 9.032 49.9298 8.756 50.2738 8.556C50.6258 8.356 51.0258 8.256 51.4738 8.256V10.02H51.0298C50.5018 10.02 50.1018 10.144 49.8298 10.392C49.5658 10.64 49.4338 11.072 49.4338 11.688V15H47.7538V8.352H49.4338V9.384ZM56.5413 15L54.2853 12.168V15H52.6053V6.12H54.2853V11.172L56.5173 8.352H58.7013L55.7733 11.688L58.7253 15H56.5413ZM65.7932 11.532C65.7932 11.772 65.7772 11.988 65.7452 12.18H60.8852C60.9252 12.66 61.0932 13.036 61.3892 13.308C61.6852 13.58 62.0492 13.716 62.4812 13.716C63.1052 13.716 63.5492 13.448 63.8132 12.912H65.6252C65.4332 13.552 65.0652 14.08 64.5212 14.496C63.9772 14.904 63.3092 15.108 62.5172 15.108C61.8772 15.108 61.3012 14.968 60.7892 14.688C60.2852 14.4 59.8892 13.996 59.6012 13.476C59.3212 12.956 59.1812 12.356 59.1812 11.676C59.1812 10.988 59.3212 10.384 59.6012 9.864C59.8812 9.344 60.2732 8.944 60.7772 8.664C61.2812 8.384 61.8612 8.244 62.5172 8.244C63.1492 8.244 63.7132 8.38 64.2092 8.652C64.7132 8.924 65.1012 9.312 65.3732 9.816C65.6532 10.312 65.7932 10.884 65.7932 11.532ZM64.0532 11.052C64.0452 10.62 63.8892 10.276 63.5852 10.02C63.2812 9.756 62.9092 9.624 62.4692 9.624C62.0532 9.624 61.7012 9.752 61.4132 10.008C61.1332 10.256 60.9612 10.604 60.8972 11.052H64.0532ZM68.9754 9.732V12.948C68.9754 13.172 69.0274 13.336 69.1314 13.44C69.2434 13.536 69.4274 13.584 69.6834 13.584H70.4634V15H69.4074C67.9914 15 67.2834 14.312 67.2834 12.936V9.732H66.4914V8.352H67.2834V6.708H68.9754V8.352H70.4634V9.732H68.9754Z" fill="#010101"/>
</svg>
